<svg xmlns="http://www.w3.org/2000/svg" xmlns:xlink="http://www.w3.org/1999/xlink" width="1850" height="919" version="1.1">
<style type="text/css">
.l0{
 fill: #000000;
  stroke: #000000;
  stroke-linecap:round;
  stroke-linejoin:round;
  stroke-width: 1.61211;
}
.l1{
 fill: #00ccee;
  stroke: #00ccee;
  stroke-linecap:round;
  stroke-linejoin:round;
  stroke-width: 1.61211;
}
.l2{
  fill: none;
  stroke: #3f3f3f;
  stroke-linecap:round;
  stroke-linejoin:round;
  stroke-width: 1.61211;
}
.l3{
 fill: #cccccc; fill-opacity: 0.5;
  stroke: #cccccc;
  stroke-linecap:round;
  stroke-linejoin:round;
  stroke-width: 1.61211;
}
.l4{
 fill: #88dd00;
  stroke: #88dd00;
  stroke-linecap:round;
  stroke-linejoin:round;
  stroke-width: 1.61211;
}
.l5{
 fill: #bb2200;
  stroke: #bb2200;
  stroke-linecap:round;
  stroke-linejoin:round;
  stroke-width: 1.61211;
}
.l6{
 fill: #00ccee; fill-opacity: 0.5;
  stroke: #00ccee;
  stroke-linecap:round;
  stroke-linejoin:round;
  stroke-width: 1.61211;
}
.l7{
 fill: #ff0000; fill-opacity: 0.5;
  stroke: #ff0000;
  stroke-linecap:round;
  stroke-linejoin:round;
  stroke-width: 1.61211;
}
.l8{
 fill: #ffff00; fill-opacity: 0.5;
  stroke: #ffff00;
  stroke-linecap:round;
  stroke-linejoin:round;
  stroke-width: 1.61211;
}
.l9{
 fill: #ffffff; fill-opacity: 0.5;
  stroke: #ffffff;
  stroke-linecap:round;
  stroke-linejoin:round;
  stroke-width: 1.61211;
}
.l10{
 fill: #ff00ff;
  stroke: #ff00ff;
  stroke-linecap:round;
  stroke-linejoin:round;
  stroke-width: 1.61211;
}
.l11{
 fill: #00ff00; fill-opacity: 0.5;
  stroke: #00ff00;
  stroke-linecap:round;
  stroke-linejoin:round;
  stroke-width: 1.61211;
}
.l12{
 fill: #0044dd; fill-opacity: 0.5;
  stroke: #0044dd;
  stroke-linecap:round;
  stroke-linejoin:round;
  stroke-width: 1.61211;
}
.l13{
 fill: #aaaa00; fill-opacity: 0.5;
  stroke: #aaaa00;
  stroke-linecap:round;
  stroke-linejoin:round;
  stroke-width: 1.61211;
}
.l14{
  fill: none;
  stroke: #aaccaa;
  stroke-linecap:round;
  stroke-linejoin:round;
  stroke-width: 1.61211;
}
.l15{
 fill: #ff7777; fill-opacity: 0.5;
  stroke: #ff7777;
  stroke-linecap:round;
  stroke-linejoin:round;
  stroke-width: 1.61211;
}
.l16{
 fill: #bfff81; fill-opacity: 0.5;
  stroke: #bfff81;
  stroke-linecap:round;
  stroke-linejoin:round;
  stroke-width: 1.61211;
}
.l17{
  fill: none;
  stroke: #00ffcc;
  stroke-linecap:round;
  stroke-linejoin:round;
  stroke-width: 1.61211;
}
.l18{
 fill: #ce0097; fill-opacity: 0.5;
  stroke: #ce0097;
  stroke-linecap:round;
  stroke-linejoin:round;
  stroke-width: 1.61211;
}
.l19{
  fill: none;
  stroke: #d2d46b;
  stroke-linecap:round;
  stroke-linejoin:round;
  stroke-width: 1.61211;
}
.l20{
  fill: none;
  stroke: #ef6158;
  stroke-linecap:round;
  stroke-linejoin:round;
  stroke-width: 1.61211;
}
.l21{
  fill: none;
  stroke: #fdb200;
  stroke-linecap:round;
  stroke-linejoin:round;
  stroke-width: 1.61211;
}
text {font-family: Sans-Serif;}
</style>
<rect class="l0" x="0" y="0" width="1850" height="919"/>
<text fill="#00ccee"  xml:space="preserve" font-size="15.524" transform="translate(888, 619.449)" >GND</text>
<text fill="#00ccee"  xml:space="preserve" font-size="15.524" transform="translate(52.0933, 828.425)" >GND</text>
<text fill="#00ccee"  xml:space="preserve" font-size="15.524" transform="translate(305.851, 828.425)" >GND</text>
<text fill="#00ccee"  xml:space="preserve" font-size="15.524" transform="translate(559.608, 828.425)" >GND</text>
<text fill="#00ccee"  xml:space="preserve" font-size="15.524" transform="translate(813.365, 828.425)" >GND</text>
<text fill="#00ccee"  xml:space="preserve" font-size="15.524" transform="translate(1067.12, 828.425)" >GND</text>
<text fill="#00ccee"  xml:space="preserve" font-size="15.524" transform="translate(1320.88, 828.425)" >GND</text>
<text fill="#00ccee"  xml:space="preserve" font-size="25.6146" transform="translate(140.931, 841.006) rotate(270)" >Vbn</text>
<text fill="#00ccee"  xml:space="preserve" font-size="25.6146" transform="translate(394.688, 841.006) rotate(270)" >Vbn</text>
<text fill="#00ccee"  xml:space="preserve" font-size="25.6146" transform="translate(648.446, 841.006) rotate(270)" >Vbn</text>
<text fill="#00ccee"  xml:space="preserve" font-size="25.6146" transform="translate(902.203, 841.006) rotate(270)" >Vbn</text>
<text fill="#00ccee"  xml:space="preserve" font-size="25.6146" transform="translate(1155.96, 841.006) rotate(270)" >Vbn</text>
<text fill="#00ccee"  xml:space="preserve" font-size="25.6146" transform="translate(1409.72, 841.006) rotate(270)" >Vbn</text>
<text fill="#00ccee"  xml:space="preserve" font-size="25.6146" transform="translate(1663.48, 841.006) rotate(270)" >Vbn</text>
<text fill="#00ccee"  xml:space="preserve" font-size="15.524" transform="translate(1574.64, 828.425)" >GND</text>
<text fill="#00ccee"  xml:space="preserve" font-size="25.6146" transform="translate(170.85, 741.037)" >b0</text>
<text fill="#00ccee"  xml:space="preserve" font-size="25.6146" transform="translate(424.607, 741.037)" >b1</text>
<text fill="#00ccee"  xml:space="preserve" font-size="25.6146" transform="translate(678.365, 741.037)" >b2</text>
<text fill="#00ccee"  xml:space="preserve" font-size="25.6146" transform="translate(932.122, 741.037)" >b3</text>
<text fill="#00ccee"  xml:space="preserve" font-size="25.6146" transform="translate(1185.88, 741.037)" >b4</text>
<text fill="#00ccee"  xml:space="preserve" font-size="25.6146" transform="translate(1439.64, 741.037)" >b5</text>
<text fill="#00ccee"  xml:space="preserve" font-size="25.6146" transform="translate(1693.39, 741.037)" >b6</text>
<text fill="#00ccee"  xml:space="preserve" font-size="15.524" transform="translate(888.5, 122.196)" >VDD</text>
<text fill="#00ccee"  xml:space="preserve" font-size="25.6146" transform="translate(1678.47, 263.376)" >Iin</text>
<text fill="#cccccc"  xml:space="preserve" font-size="15.524" transform="translate(152.191, 310.978)" >M1</text>
<text fill="#cccccc"  xml:space="preserve" font-size="15.524" transform="translate(152.191, 333.368)" >nfet_01v8</text>
<text fill="#aaaa00"  xml:space="preserve" font-size="15.524" transform="translate(152.191, 355.758)" >2 x {W} / {L}</text>
<text fill="#cccccc"  xml:space="preserve" font-size="15.524" transform="translate(310.482, 392.321) rotate(270)" >M2</text>
<text fill="#cccccc"  xml:space="preserve" font-size="15.524" transform="translate(288.091, 447.321) rotate(270)" >nfet_01v8</text>
<text fill="#aaaa00"  xml:space="preserve" font-size="15.524" transform="translate(265.701, 477.321) rotate(270)" >2 x {W} / {L}</text>
<text fill="#cccccc"  xml:space="preserve" font-size="15.524" transform="translate(405.949, 310.978)" >M3</text>
<text fill="#cccccc"  xml:space="preserve" font-size="15.524" transform="translate(405.949, 333.368)" >nfet_01v8</text>
<text fill="#aaaa00"  xml:space="preserve" font-size="15.524" transform="translate(405.949, 355.758)" >1 x {W} / {L}</text>
<text fill="#cccccc"  xml:space="preserve" font-size="15.524" transform="translate(564.239, 392.321) rotate(270)" >M4</text>
<text fill="#cccccc"  xml:space="preserve" font-size="15.524" transform="translate(541.849, 447.321) rotate(270)" >nfet_01v8</text>
<text fill="#aaaa00"  xml:space="preserve" font-size="15.524" transform="translate(519.459, 477.321) rotate(270)" >2 x {W} / {L}</text>
<text fill="#cccccc"  xml:space="preserve" font-size="15.524" transform="translate(659.706, 310.978)" >M5</text>
<text fill="#cccccc"  xml:space="preserve" font-size="15.524" transform="translate(659.706, 333.368)" >nfet_01v8</text>
<text fill="#aaaa00"  xml:space="preserve" font-size="15.524" transform="translate(659.706, 355.758)" >1 x {W} / {L}</text>
<text fill="#cccccc"  xml:space="preserve" font-size="15.524" transform="translate(817.997, 392.321) rotate(270)" >M6</text>
<text fill="#cccccc"  xml:space="preserve" font-size="15.524" transform="translate(795.606, 447.321) rotate(270)" >nfet_01v8</text>
<text fill="#aaaa00"  xml:space="preserve" font-size="15.524" transform="translate(773.216, 477.321) rotate(270)" >2 x {W} / {L}</text>
<text fill="#cccccc"  xml:space="preserve" font-size="15.524" transform="translate(913.463, 310.978)" >M7</text>
<text fill="#cccccc"  xml:space="preserve" font-size="15.524" transform="translate(913.463, 333.368)" >nfet_01v8</text>
<text fill="#aaaa00"  xml:space="preserve" font-size="15.524" transform="translate(913.463, 355.758)" >1 x {W} / {L}</text>
<text fill="#cccccc"  xml:space="preserve" font-size="15.524" transform="translate(1071.75, 392.321) rotate(270)" >M8</text>
<text fill="#cccccc"  xml:space="preserve" font-size="15.524" transform="translate(1049.36, 447.321) rotate(270)" >nfet_01v8</text>
<text fill="#aaaa00"  xml:space="preserve" font-size="15.524" transform="translate(1026.97, 477.321) rotate(270)" >2 x {W} / {L}</text>
<text fill="#cccccc"  xml:space="preserve" font-size="15.524" transform="translate(1167.22, 310.978)" >M9</text>
<text fill="#cccccc"  xml:space="preserve" font-size="15.524" transform="translate(1167.22, 333.368)" >nfet_01v8</text>
<text fill="#aaaa00"  xml:space="preserve" font-size="15.524" transform="translate(1167.22, 355.758)" >1 x {W} / {L}</text>
<text fill="#cccccc"  xml:space="preserve" font-size="15.524" transform="translate(1325.51, 402.321) rotate(270)" >M10</text>
<text fill="#cccccc"  xml:space="preserve" font-size="15.524" transform="translate(1303.12, 447.321) rotate(270)" >nfet_01v8</text>
<text fill="#aaaa00"  xml:space="preserve" font-size="15.524" transform="translate(1280.73, 477.321) rotate(270)" >2 x {W} / {L}</text>
<text fill="#cccccc"  xml:space="preserve" font-size="15.524" transform="translate(1420.98, 310.978)" >M11</text>
<text fill="#cccccc"  xml:space="preserve" font-size="15.524" transform="translate(1420.98, 333.368)" >nfet_01v8</text>
<text fill="#aaaa00"  xml:space="preserve" font-size="15.524" transform="translate(1420.98, 355.758)" >1 x {W} / {L}</text>
<text fill="#cccccc"  xml:space="preserve" font-size="15.524" transform="translate(1579.27, 402.321) rotate(270)" >M12</text>
<text fill="#cccccc"  xml:space="preserve" font-size="15.524" transform="translate(1556.88, 447.321) rotate(270)" >nfet_01v8</text>
<text fill="#aaaa00"  xml:space="preserve" font-size="15.524" transform="translate(1534.49, 477.321) rotate(270)" >2 x {W} / {L}</text>
<text fill="#cccccc"  xml:space="preserve" font-size="15.524" transform="translate(1674.74, 310.978)" >M13</text>
<text fill="#cccccc"  xml:space="preserve" font-size="15.524" transform="translate(1674.74, 333.368)" >nfet_01v8</text>
<text fill="#aaaa00"  xml:space="preserve" font-size="15.524" transform="translate(1674.74, 355.758)" >2 x {W} / {L}</text>
<text fill="#cccccc"  xml:space="preserve" font-size="15.524" transform="translate(152.191, 490.101)" >M14</text>
<text fill="#cccccc"  xml:space="preserve" font-size="15.524" transform="translate(152.191, 512.491)" >nfet_01v8</text>
<text fill="#aaaa00"  xml:space="preserve" font-size="15.524" transform="translate(152.191, 534.881)" >1 x {W} / {L}</text>
<text fill="#cccccc"  xml:space="preserve" font-size="15.524" transform="translate(405.949, 490.101)" >M15</text>
<text fill="#cccccc"  xml:space="preserve" font-size="15.524" transform="translate(405.949, 512.491)" >nfet_01v8</text>
<text fill="#aaaa00"  xml:space="preserve" font-size="15.524" transform="translate(405.949, 534.881)" >1 x {W} / {L}</text>
<text fill="#cccccc"  xml:space="preserve" font-size="15.524" transform="translate(659.706, 490.101)" >M16</text>
<text fill="#cccccc"  xml:space="preserve" font-size="15.524" transform="translate(659.706, 512.491)" >nfet_01v8</text>
<text fill="#aaaa00"  xml:space="preserve" font-size="15.524" transform="translate(659.706, 534.881)" >1 x {W} / {L}</text>
<text fill="#cccccc"  xml:space="preserve" font-size="15.524" transform="translate(913.463, 490.101)" >M17</text>
<text fill="#cccccc"  xml:space="preserve" font-size="15.524" transform="translate(913.463, 512.491)" >nfet_01v8</text>
<text fill="#aaaa00"  xml:space="preserve" font-size="15.524" transform="translate(913.463, 534.881)" >1 x {W} / {L}</text>
<text fill="#cccccc"  xml:space="preserve" font-size="15.524" transform="translate(1167.22, 490.101)" >M18</text>
<text fill="#cccccc"  xml:space="preserve" font-size="15.524" transform="translate(1167.22, 512.491)" >nfet_01v8</text>
<text fill="#aaaa00"  xml:space="preserve" font-size="15.524" transform="translate(1167.22, 534.881)" >1 x {W} / {L}</text>
<text fill="#cccccc"  xml:space="preserve" font-size="15.524" transform="translate(1420.98, 490.101)" >M19</text>
<text fill="#cccccc"  xml:space="preserve" font-size="15.524" transform="translate(1420.98, 512.491)" >nfet_01v8</text>
<text fill="#aaaa00"  xml:space="preserve" font-size="15.524" transform="translate(1420.98, 534.881)" >1 x {W} / {L}</text>
<text fill="#cccccc"  xml:space="preserve" font-size="15.524" transform="translate(1674.74, 490.101)" >M20</text>
<text fill="#cccccc"  xml:space="preserve" font-size="15.524" transform="translate(1674.74, 512.491)" >nfet_01v8</text>
<text fill="#aaaa00"  xml:space="preserve" font-size="15.524" transform="translate(1674.74, 534.881)" >1 x {W} / {L}</text>
<text fill="#cccccc"  xml:space="preserve" font-size="15.524" transform="translate(913.463, 169.172)" >M29</text>
<text fill="#cccccc"  xml:space="preserve" font-size="15.524" transform="translate(913.463, 191.562)" >pfet_01v8</text>
<text fill="#aaaa00"  xml:space="preserve" font-size="15.524" transform="translate(913.463, 213.953)" >1 x {W} / {L}</text>
<text fill="#cccccc"  xml:space="preserve" font-size="15.524" transform="translate(143.897, 690.25) rotate(270)" >X8</text>
<text fill="#cccccc"  xml:space="preserve" font-size="15.524" transform="translate(397.654, 690.25) rotate(270)" >X4</text>
<text fill="#cccccc"  xml:space="preserve" font-size="15.524" transform="translate(651.411, 690.25) rotate(270)" >X5</text>
<text fill="#cccccc"  xml:space="preserve" font-size="15.524" transform="translate(905.169, 690.25) rotate(270)" >X6</text>
<text fill="#cccccc"  xml:space="preserve" font-size="15.524" transform="translate(1158.93, 690.25) rotate(270)" >X3</text>
<text fill="#cccccc"  xml:space="preserve" font-size="15.524" transform="translate(1412.68, 690.25) rotate(270)" >X1</text>
<text fill="#cccccc"  xml:space="preserve" font-size="15.524" transform="translate(1666.44, 690.25) rotate(270)" >X2</text>
<path class="l4" d="M144.728 272.296L144.728 294.687"/>
<path class="l4" d="M122.337 294.687L144.728 294.687"/>
<path class="l4" d="M122.337 286.29L122.337 347.864"/>
<path class="l4" d="M122.337 339.467L144.728 339.467"/>
<path class="l4" d="M144.728 339.467L144.728 361.858"/>
<path class="l4" d="M116.74 294.687L116.74 339.467"/>
<path class="l4" d="M99.9471 317.077L116.74 317.077"/>
<path class="l4" d="M316.387 361.858L338.778 361.858"/>
<path class="l4" d="M316.387 339.467L316.387 361.858"/>
<path class="l4" d="M263.21 339.467L324.784 339.467"/>
<path class="l4" d="M271.607 339.467L271.607 361.858"/>
<path class="l4" d="M249.216 361.858L271.607 361.858"/>
<path class="l4" d="M271.607 333.87L316.387 333.87"/>
<path class="l4" d="M293.997 317.077L293.997 333.87"/>
<path class="l4" d="M398.485 272.296L398.485 294.687"/>
<path class="l4" d="M376.095 294.687L398.485 294.687"/>
<path class="l4" d="M376.095 286.29L376.095 347.864"/>
<path class="l4" d="M376.095 339.467L398.485 339.467"/>
<path class="l4" d="M398.485 339.467L398.485 361.858"/>
<path class="l4" d="M370.497 294.687L370.497 339.467"/>
<path class="l4" d="M353.705 317.077L370.497 317.077"/>
<path class="l4" d="M570.145 361.858L592.535 361.858"/>
<path class="l4" d="M570.145 339.467L570.145 361.858"/>
<path class="l4" d="M516.968 339.467L578.541 339.467"/>
<path class="l4" d="M525.364 339.467L525.364 361.858"/>
<path class="l4" d="M502.974 361.858L525.364 361.858"/>
<path class="l4" d="M525.364 333.87L570.145 333.87"/>
<path class="l4" d="M547.754 317.077L547.754 333.87"/>
<path class="l4" d="M652.243 272.296L652.243 294.687"/>
<path class="l4" d="M629.852 294.687L652.243 294.687"/>
<path class="l4" d="M629.852 286.29L629.852 347.864"/>
<path class="l4" d="M629.852 339.467L652.243 339.467"/>
<path class="l4" d="M652.243 339.467L652.243 361.858"/>
<path class="l4" d="M624.255 294.687L624.255 339.467"/>
<path class="l4" d="M607.462 317.077L624.255 317.077"/>
<path class="l4" d="M823.902 361.858L846.292 361.858"/>
<path class="l4" d="M823.902 339.467L823.902 361.858"/>
<path class="l4" d="M770.725 339.467L832.298 339.467"/>
<path class="l4" d="M779.121 339.467L779.121 361.858"/>
<path class="l4" d="M756.731 361.858L779.121 361.858"/>
<path class="l4" d="M779.121 333.87L823.902 333.87"/>
<path class="l4" d="M801.512 317.077L801.512 333.87"/>
<path class="l4" d="M906 272.296L906 294.687"/>
<path class="l4" d="M883.61 294.687L906 294.687"/>
<path class="l4" d="M883.61 286.29L883.61 347.864"/>
<path class="l4" d="M883.61 339.467L906 339.467"/>
<path class="l4" d="M906 339.467L906 361.858"/>
<path class="l4" d="M878.012 294.687L878.012 339.467"/>
<path class="l4" d="M861.219 317.077L878.012 317.077"/>
<path class="l4" d="M1077.66 361.858L1100.05 361.858"/>
<path class="l4" d="M1077.66 339.467L1077.66 361.858"/>
<path class="l4" d="M1024.48 339.467L1086.06 339.467"/>
<path class="l4" d="M1032.88 339.467L1032.88 361.858"/>
<path class="l4" d="M1010.49 361.858L1032.88 361.858"/>
<path class="l4" d="M1032.88 333.87L1077.66 333.87"/>
<path class="l4" d="M1055.27 317.077L1055.27 333.87"/>
<path class="l4" d="M1159.76 272.296L1159.76 294.687"/>
<path class="l4" d="M1137.37 294.687L1159.76 294.687"/>
<path class="l4" d="M1137.37 286.29L1137.37 347.864"/>
<path class="l4" d="M1137.37 339.467L1159.76 339.467"/>
<path class="l4" d="M1159.76 339.467L1159.76 361.858"/>
<path class="l4" d="M1131.77 294.687L1131.77 339.467"/>
<path class="l4" d="M1114.98 317.077L1131.77 317.077"/>
<path class="l4" d="M1331.42 361.858L1353.81 361.858"/>
<path class="l4" d="M1331.42 339.467L1331.42 361.858"/>
<path class="l4" d="M1278.24 339.467L1339.81 339.467"/>
<path class="l4" d="M1286.64 339.467L1286.64 361.858"/>
<path class="l4" d="M1264.25 361.858L1286.64 361.858"/>
<path class="l4" d="M1286.64 333.87L1331.42 333.87"/>
<path class="l4" d="M1309.03 317.077L1309.03 333.87"/>
<path class="l4" d="M1413.51 272.296L1413.51 294.687"/>
<path class="l4" d="M1391.12 294.687L1413.51 294.687"/>
<path class="l4" d="M1391.12 286.29L1391.12 347.864"/>
<path class="l4" d="M1391.12 339.467L1413.51 339.467"/>
<path class="l4" d="M1413.51 339.467L1413.51 361.858"/>
<path class="l4" d="M1385.53 294.687L1385.53 339.467"/>
<path class="l4" d="M1368.73 317.077L1385.53 317.077"/>
<path class="l4" d="M1585.17 361.858L1607.56 361.858"/>
<path class="l4" d="M1585.17 339.467L1585.17 361.858"/>
<path class="l4" d="M1532 339.467L1593.57 339.467"/>
<path class="l4" d="M1540.39 339.467L1540.39 361.858"/>
<path class="l4" d="M1518 361.858L1540.39 361.858"/>
<path class="l4" d="M1540.39 333.87L1585.17 333.87"/>
<path class="l4" d="M1562.78 317.077L1562.78 333.87"/>
<path class="l4" d="M1667.27 272.296L1667.27 294.687"/>
<path class="l4" d="M1644.88 294.687L1667.27 294.687"/>
<path class="l4" d="M1644.88 286.29L1644.88 347.864"/>
<path class="l4" d="M1644.88 339.467L1667.27 339.467"/>
<path class="l4" d="M1667.27 339.467L1667.27 361.858"/>
<path class="l4" d="M1639.28 294.687L1639.28 339.467"/>
<path class="l4" d="M1622.49 317.077L1639.28 317.077"/>
<path class="l4" d="M144.728 451.419L144.728 473.81"/>
<path class="l4" d="M122.337 473.81L144.728 473.81"/>
<path class="l4" d="M122.337 465.413L122.337 526.987"/>
<path class="l4" d="M122.337 518.59L144.728 518.59"/>
<path class="l4" d="M144.728 518.59L144.728 540.981"/>
<path class="l4" d="M116.74 473.81L116.74 518.59"/>
<path class="l4" d="M99.9471 496.2L116.74 496.2"/>
<path class="l4" d="M398.485 451.419L398.485 473.81"/>
<path class="l4" d="M376.095 473.81L398.485 473.81"/>
<path class="l4" d="M376.095 465.413L376.095 526.987"/>
<path class="l4" d="M376.095 518.59L398.485 518.59"/>
<path class="l4" d="M398.485 518.59L398.485 540.981"/>
<path class="l4" d="M370.497 473.81L370.497 518.59"/>
<path class="l4" d="M353.705 496.2L370.497 496.2"/>
<path class="l4" d="M652.243 451.419L652.243 473.81"/>
<path class="l4" d="M629.852 473.81L652.243 473.81"/>
<path class="l4" d="M629.852 465.413L629.852 526.987"/>
<path class="l4" d="M629.852 518.59L652.243 518.59"/>
<path class="l4" d="M652.243 518.59L652.243 540.981"/>
<path class="l4" d="M624.255 473.81L624.255 518.59"/>
<path class="l4" d="M607.462 496.2L624.255 496.2"/>
<path class="l4" d="M906 451.419L906 473.81"/>
<path class="l4" d="M883.61 473.81L906 473.81"/>
<path class="l4" d="M883.61 465.413L883.61 526.987"/>
<path class="l4" d="M883.61 518.59L906 518.59"/>
<path class="l4" d="M906 518.59L906 540.981"/>
<path class="l4" d="M878.012 473.81L878.012 518.59"/>
<path class="l4" d="M861.219 496.2L878.012 496.2"/>
<path class="l4" d="M1159.76 451.419L1159.76 473.81"/>
<path class="l4" d="M1137.37 473.81L1159.76 473.81"/>
<path class="l4" d="M1137.37 465.413L1137.37 526.987"/>
<path class="l4" d="M1137.37 518.59L1159.76 518.59"/>
<path class="l4" d="M1159.76 518.59L1159.76 540.981"/>
<path class="l4" d="M1131.77 473.81L1131.77 518.59"/>
<path class="l4" d="M1114.98 496.2L1131.77 496.2"/>
<path class="l4" d="M1413.51 451.419L1413.51 473.81"/>
<path class="l4" d="M1391.12 473.81L1413.51 473.81"/>
<path class="l4" d="M1391.12 465.413L1391.12 526.987"/>
<path class="l4" d="M1391.12 518.59L1413.51 518.59"/>
<path class="l4" d="M1413.51 518.59L1413.51 540.981"/>
<path class="l4" d="M1385.53 473.81L1385.53 518.59"/>
<path class="l4" d="M1368.73 496.2L1385.53 496.2"/>
<path class="l4" d="M1667.27 451.419L1667.27 473.81"/>
<path class="l4" d="M1644.88 473.81L1667.27 473.81"/>
<path class="l4" d="M1644.88 465.413L1644.88 526.987"/>
<path class="l4" d="M1644.88 518.59L1667.27 518.59"/>
<path class="l4" d="M1667.27 518.59L1667.27 540.981"/>
<path class="l4" d="M1639.28 473.81L1639.28 518.59"/>
<path class="l4" d="M1622.49 496.2L1639.28 496.2"/>
<path class="l4" d="M906 570.835L906 578.298"/>
<path class="l4" d="M892.006 578.298L919.994 578.298"/>
<path class="l4" d="M906 597.89L919.994 578.298"/>
<path class="l4" d="M892.006 578.298L906 597.89"/>
<path class="l4" d="M70.0933 779.811L70.0933 787.275"/>
<path class="l4" d="M56.0994 787.275L84.0873 787.275"/>
<path class="l4" d="M70.0933 806.866L84.0873 787.275"/>
<path class="l4" d="M56.0994 787.275L70.0933 806.866"/>
<path class="l4" d="M323.851 779.811L323.851 787.275"/>
<path class="l4" d="M309.857 787.275L337.845 787.275"/>
<path class="l4" d="M323.851 806.866L337.845 787.275"/>
<path class="l4" d="M309.857 787.275L323.851 806.866"/>
<path class="l4" d="M577.608 779.811L577.608 787.275"/>
<path class="l4" d="M563.614 787.275L591.602 787.275"/>
<path class="l4" d="M577.608 806.866L591.602 787.275"/>
<path class="l4" d="M563.614 787.275L577.608 806.866"/>
<path class="l4" d="M831.365 779.811L831.365 787.275"/>
<path class="l4" d="M817.372 787.275L845.359 787.275"/>
<path class="l4" d="M831.365 806.866L845.359 787.275"/>
<path class="l4" d="M817.372 787.275L831.365 806.866"/>
<path class="l4" d="M1085.12 779.811L1085.12 787.275"/>
<path class="l4" d="M1071.13 787.275L1099.12 787.275"/>
<path class="l4" d="M1085.12 806.866L1099.12 787.275"/>
<path class="l4" d="M1071.13 787.275L1085.12 806.866"/>
<path class="l4" d="M1338.88 779.811L1338.88 787.275"/>
<path class="l4" d="M1324.89 787.275L1352.87 787.275"/>
<path class="l4" d="M1338.88 806.866L1352.87 787.275"/>
<path class="l4" d="M1324.89 787.275L1338.88 806.866"/>
<path class="l4" d="M1592.64 779.811L1592.64 787.275"/>
<path class="l4" d="M1578.64 787.275L1606.63 787.275"/>
<path class="l4" d="M1592.64 806.866L1606.63 787.275"/>
<path class="l4" d="M1578.64 787.275L1592.64 806.866"/>
<path class="l4" d="M906 152.881L906 175.272"/>
<path class="l4" d="M883.61 175.272L906 175.272"/>
<path class="l4" d="M883.61 166.875L883.61 228.449"/>
<path class="l4" d="M883.61 220.052L906 220.052"/>
<path class="l4" d="M906 220.052L906 242.443"/>
<path class="l4" d="M878.012 175.272L878.012 220.052"/>
<path class="l4" d="M861.219 197.662L869.616 197.662"/>
<circle class="l4" cx="873.814" cy="197.662" r="4.19819" style="fill:none;"/>
<path class="l4" d="M70.0933 749.957L70.0933 779.811"/>
<path class="l4" d="M129.801 749.957L129.801 779.811"/>
<path class="l4" d="M99.9471 690.25L99.9471 720.104"/>
<path class="l4" d="M129.801 735.03L159.655 735.03"/>
<path class="l4" d="M55.1664 749.957L144.728 749.957"/>
<path class="l4" d="M85.0202 720.104L114.874 720.104"/>
<path class="l4" d="M55.1664 749.957L85.0202 720.104"/>
<path class="l4" d="M114.874 720.104L144.728 749.957"/>
<path class="l4" d="M323.851 749.957L323.851 779.811"/>
<path class="l4" d="M383.558 749.957L383.558 779.811"/>
<path class="l4" d="M353.705 690.25L353.705 720.104"/>
<path class="l4" d="M383.558 735.03L413.412 735.03"/>
<path class="l4" d="M308.924 749.957L398.485 749.957"/>
<path class="l4" d="M338.778 720.104L368.631 720.104"/>
<path class="l4" d="M308.924 749.957L338.778 720.104"/>
<path class="l4" d="M368.631 720.104L398.485 749.957"/>
<path class="l4" d="M577.608 749.957L577.608 779.811"/>
<path class="l4" d="M637.316 749.957L637.316 779.811"/>
<path class="l4" d="M607.462 690.25L607.462 720.104"/>
<path class="l4" d="M637.316 735.03L667.17 735.03"/>
<path class="l4" d="M562.681 749.957L652.243 749.957"/>
<path class="l4" d="M592.535 720.104L622.389 720.104"/>
<path class="l4" d="M562.681 749.957L592.535 720.104"/>
<path class="l4" d="M622.389 720.104L652.243 749.957"/>
<path class="l4" d="M831.365 749.957L831.365 779.811"/>
<path class="l4" d="M891.073 749.957L891.073 779.811"/>
<path class="l4" d="M861.219 690.25L861.219 720.104"/>
<path class="l4" d="M891.073 735.03L920.927 735.03"/>
<path class="l4" d="M816.439 749.957L906 749.957"/>
<path class="l4" d="M846.292 720.104L876.146 720.104"/>
<path class="l4" d="M816.439 749.957L846.292 720.104"/>
<path class="l4" d="M876.146 720.104L906 749.957"/>
<path class="l4" d="M1085.12 749.957L1085.12 779.811"/>
<path class="l4" d="M1144.83 749.957L1144.83 779.811"/>
<path class="l4" d="M1114.98 690.25L1114.98 720.104"/>
<path class="l4" d="M1144.83 735.03L1174.68 735.03"/>
<path class="l4" d="M1070.2 749.957L1159.76 749.957"/>
<path class="l4" d="M1100.05 720.104L1129.9 720.104"/>
<path class="l4" d="M1070.2 749.957L1100.05 720.104"/>
<path class="l4" d="M1129.9 720.104L1159.76 749.957"/>
<path class="l4" d="M1338.88 749.957L1338.88 779.811"/>
<path class="l4" d="M1398.59 749.957L1398.59 779.811"/>
<path class="l4" d="M1368.73 690.25L1368.73 720.104"/>
<path class="l4" d="M1398.59 735.03L1428.44 735.03"/>
<path class="l4" d="M1323.95 749.957L1413.51 749.957"/>
<path class="l4" d="M1353.81 720.104L1383.66 720.104"/>
<path class="l4" d="M1323.95 749.957L1353.81 720.104"/>
<path class="l4" d="M1383.66 720.104L1413.51 749.957"/>
<path class="l4" d="M1592.64 749.957L1592.64 779.811"/>
<path class="l4" d="M1652.35 749.957L1652.35 779.811"/>
<path class="l4" d="M1622.49 690.25L1622.49 720.104"/>
<path class="l4" d="M1652.35 735.03L1682.2 735.03"/>
<path class="l4" d="M1577.71 749.957L1667.27 749.957"/>
<path class="l4" d="M1607.56 720.104L1637.42 720.104"/>
<path class="l4" d="M1577.71 749.957L1607.56 720.104"/>
<path class="l4" d="M1637.42 720.104L1667.27 749.957"/>
<path class="l4" d="M906 137.954L906 152.881"/>
<path class="l4" d="M892.006 137.954L919.994 137.954"/>
<circle class="l4" cx="906" cy="137.954" r="5.22442" />
<path class="l5" d="M143.982 271.55L145.474 271.55L145.474 273.043L143.982 273.043L143.982 271.55z"/>
<path class="l5" d="M99.2008 316.331L100.693 316.331L100.693 317.823L99.2008 317.823L99.2008 316.331z"/>
<path class="l5" d="M143.982 361.112L145.474 361.112L145.474 362.604L143.982 362.604L143.982 361.112z"/>
<path class="l5" d="M338.031 361.112L339.524 361.112L339.524 362.604L338.031 362.604L338.031 361.112z"/>
<path class="l5" d="M293.251 316.331L294.743 316.331L294.743 317.823L293.251 317.823L293.251 316.331z"/>
<path class="l5" d="M248.47 361.112L249.963 361.112L249.963 362.604L248.47 362.604L248.47 361.112z"/>
<path class="l5" d="M397.739 271.55L399.232 271.55L399.232 273.043L397.739 273.043L397.739 271.55z"/>
<path class="l5" d="M352.958 316.331L354.451 316.331L354.451 317.823L352.958 317.823L352.958 316.331z"/>
<path class="l5" d="M397.739 361.112L399.232 361.112L399.232 362.604L397.739 362.604L397.739 361.112z"/>
<path class="l5" d="M591.789 361.112L593.281 361.112L593.281 362.604L591.789 362.604L591.789 361.112z"/>
<path class="l5" d="M547.008 316.331L548.501 316.331L548.501 317.823L547.008 317.823L547.008 316.331z"/>
<path class="l5" d="M502.227 361.112L503.72 361.112L503.72 362.604L502.227 362.604L502.227 361.112z"/>
<path class="l5" d="M651.496 271.55L652.989 271.55L652.989 273.043L651.496 273.043L651.496 271.55z"/>
<path class="l5" d="M606.716 316.331L608.208 316.331L608.208 317.823L606.716 317.823L606.716 316.331z"/>
<path class="l5" d="M651.496 361.112L652.989 361.112L652.989 362.604L651.496 362.604L651.496 361.112z"/>
<path class="l5" d="M845.546 361.112L847.039 361.112L847.039 362.604L845.546 362.604L845.546 361.112z"/>
<path class="l5" d="M800.765 316.331L802.258 316.331L802.258 317.823L800.765 317.823L800.765 316.331z"/>
<path class="l5" d="M755.985 361.112L757.477 361.112L757.477 362.604L755.985 362.604L755.985 361.112z"/>
<path class="l5" d="M905.254 271.55L906.746 271.55L906.746 273.043L905.254 273.043L905.254 271.55z"/>
<path class="l5" d="M860.473 316.331L861.966 316.331L861.966 317.823L860.473 317.823L860.473 316.331z"/>
<path class="l5" d="M905.254 361.112L906.746 361.112L906.746 362.604L905.254 362.604L905.254 361.112z"/>
<path class="l5" d="M1099.3 361.112L1100.8 361.112L1100.8 362.604L1099.3 362.604L1099.3 361.112z"/>
<path class="l5" d="M1054.52 316.331L1056.02 316.331L1056.02 317.823L1054.52 317.823L1054.52 316.331z"/>
<path class="l5" d="M1009.74 361.112L1011.23 361.112L1011.23 362.604L1009.74 362.604L1009.74 361.112z"/>
<path class="l5" d="M1159.01 271.55L1160.5 271.55L1160.5 273.043L1159.01 273.043L1159.01 271.55z"/>
<path class="l5" d="M1114.23 316.331L1115.72 316.331L1115.72 317.823L1114.23 317.823L1114.23 316.331z"/>
<path class="l5" d="M1159.01 361.112L1160.5 361.112L1160.5 362.604L1159.01 362.604L1159.01 361.112z"/>
<path class="l5" d="M1353.06 361.112L1354.55 361.112L1354.55 362.604L1353.06 362.604L1353.06 361.112z"/>
<path class="l5" d="M1308.28 316.331L1309.77 316.331L1309.77 317.823L1308.28 317.823L1308.28 316.331z"/>
<path class="l5" d="M1263.5 361.112L1264.99 361.112L1264.99 362.604L1263.5 362.604L1263.5 361.112z"/>
<path class="l5" d="M1412.77 271.55L1414.26 271.55L1414.26 273.043L1412.77 273.043L1412.77 271.55z"/>
<path class="l5" d="M1367.99 316.331L1369.48 316.331L1369.48 317.823L1367.99 317.823L1367.99 316.331z"/>
<path class="l5" d="M1412.77 361.112L1414.26 361.112L1414.26 362.604L1412.77 362.604L1412.77 361.112z"/>
<path class="l5" d="M1606.82 361.112L1608.31 361.112L1608.31 362.604L1606.82 362.604L1606.82 361.112z"/>
<path class="l5" d="M1562.04 316.331L1563.53 316.331L1563.53 317.823L1562.04 317.823L1562.04 316.331z"/>
<path class="l5" d="M1517.26 361.112L1518.75 361.112L1518.75 362.604L1517.26 362.604L1517.26 361.112z"/>
<path class="l5" d="M1666.53 271.55L1668.02 271.55L1668.02 273.043L1666.53 273.043L1666.53 271.55z"/>
<path class="l5" d="M1621.75 316.331L1623.24 316.331L1623.24 317.823L1621.75 317.823L1621.75 316.331z"/>
<path class="l5" d="M1666.53 361.112L1668.02 361.112L1668.02 362.604L1666.53 362.604L1666.53 361.112z"/>
<path class="l5" d="M143.982 450.673L145.474 450.673L145.474 452.166L143.982 452.166L143.982 450.673z"/>
<path class="l5" d="M99.2008 495.454L100.693 495.454L100.693 496.946L99.2008 496.946L99.2008 495.454z"/>
<path class="l5" d="M143.982 540.234L145.474 540.234L145.474 541.727L143.982 541.727L143.982 540.234z"/>
<path class="l5" d="M397.739 450.673L399.232 450.673L399.232 452.166L397.739 452.166L397.739 450.673z"/>
<path class="l5" d="M352.958 495.454L354.451 495.454L354.451 496.946L352.958 496.946L352.958 495.454z"/>
<path class="l5" d="M397.739 540.234L399.232 540.234L399.232 541.727L397.739 541.727L397.739 540.234z"/>
<path class="l5" d="M651.496 450.673L652.989 450.673L652.989 452.166L651.496 452.166L651.496 450.673z"/>
<path class="l5" d="M606.716 495.454L608.208 495.454L608.208 496.946L606.716 496.946L606.716 495.454z"/>
<path class="l5" d="M651.496 540.234L652.989 540.234L652.989 541.727L651.496 541.727L651.496 540.234z"/>
<path class="l5" d="M905.254 450.673L906.746 450.673L906.746 452.166L905.254 452.166L905.254 450.673z"/>
<path class="l5" d="M860.473 495.454L861.966 495.454L861.966 496.946L860.473 496.946L860.473 495.454z"/>
<path class="l5" d="M905.254 540.234L906.746 540.234L906.746 541.727L905.254 541.727L905.254 540.234z"/>
<path class="l5" d="M1159.01 450.673L1160.5 450.673L1160.5 452.166L1159.01 452.166L1159.01 450.673z"/>
<path class="l5" d="M1114.23 495.454L1115.72 495.454L1115.72 496.946L1114.23 496.946L1114.23 495.454z"/>
<path class="l5" d="M1159.01 540.234L1160.5 540.234L1160.5 541.727L1159.01 541.727L1159.01 540.234z"/>
<path class="l5" d="M1412.77 450.673L1414.26 450.673L1414.26 452.166L1412.77 452.166L1412.77 450.673z"/>
<path class="l5" d="M1367.99 495.454L1369.48 495.454L1369.48 496.946L1367.99 496.946L1367.99 495.454z"/>
<path class="l5" d="M1412.77 540.234L1414.26 540.234L1414.26 541.727L1412.77 541.727L1412.77 540.234z"/>
<path class="l5" d="M1666.53 450.673L1668.02 450.673L1668.02 452.166L1666.53 452.166L1666.53 450.673z"/>
<path class="l5" d="M1621.75 495.454L1623.24 495.454L1623.24 496.946L1621.75 496.946L1621.75 495.454z"/>
<path class="l5" d="M1666.53 540.234L1668.02 540.234L1668.02 541.727L1666.53 541.727L1666.53 540.234z"/>
<path class="l5" d="M905.254 570.088L906.746 570.088L906.746 571.581L905.254 571.581L905.254 570.088z"/>
<path class="l5" d="M69.347 779.065L70.8397 779.065L70.8397 780.558L69.347 780.558L69.347 779.065z"/>
<path class="l5" d="M323.104 779.065L324.597 779.065L324.597 780.558L323.104 780.558L323.104 779.065z"/>
<path class="l5" d="M576.862 779.065L578.354 779.065L578.354 780.558L576.862 780.558L576.862 779.065z"/>
<path class="l5" d="M830.619 779.065L832.112 779.065L832.112 780.558L830.619 780.558L830.619 779.065z"/>
<path class="l5" d="M1084.38 779.065L1085.87 779.065L1085.87 780.558L1084.38 780.558L1084.38 779.065z"/>
<path class="l5" d="M1338.13 779.065L1339.63 779.065L1339.63 780.558L1338.13 780.558L1338.13 779.065z"/>
<path class="l5" d="M127.935 777.945L131.667 777.945L131.667 781.677L127.935 781.677L127.935 777.945z"/>
<path class="l5" d="M381.692 777.945L385.424 777.945L385.424 781.677L381.692 781.677L381.692 777.945z"/>
<path class="l5" d="M635.45 777.945L639.182 777.945L639.182 781.677L635.45 781.677L635.45 777.945z"/>
<path class="l5" d="M889.207 777.945L892.939 777.945L892.939 781.677L889.207 781.677L889.207 777.945z"/>
<path class="l5" d="M1142.96 777.945L1146.7 777.945L1146.7 781.677L1142.96 781.677L1142.96 777.945z"/>
<path class="l5" d="M1396.72 777.945L1400.45 777.945L1400.45 781.677L1396.72 781.677L1396.72 777.945z"/>
<path class="l5" d="M1650.48 777.945L1654.21 777.945L1654.21 781.677L1650.48 781.677L1650.48 777.945z"/>
<path class="l5" d="M1591.89 779.065L1593.38 779.065L1593.38 780.558L1591.89 780.558L1591.89 779.065z"/>
<path class="l5" d="M157.789 733.165L161.521 733.165L161.521 736.896L157.789 736.896L157.789 733.165z"/>
<path class="l5" d="M411.546 733.165L415.278 733.165L415.278 736.896L411.546 736.896L411.546 733.165z"/>
<path class="l5" d="M665.304 733.165L669.035 733.165L669.035 736.896L665.304 736.896L665.304 733.165z"/>
<path class="l5" d="M919.061 733.165L922.793 733.165L922.793 736.896L919.061 736.896L919.061 733.165z"/>
<path class="l5" d="M1172.82 733.165L1176.55 733.165L1176.55 736.896L1172.82 736.896L1172.82 733.165z"/>
<path class="l5" d="M1426.58 733.165L1430.31 733.165L1430.31 736.896L1426.58 736.896L1426.58 733.165z"/>
<path class="l5" d="M1680.33 733.165L1684.06 733.165L1684.06 736.896L1680.33 736.896L1680.33 733.165z"/>
<path class="l5" d="M905.254 241.696L906.746 241.696L906.746 243.189L905.254 243.189L905.254 241.696z"/>
<path class="l5" d="M860.473 196.916L861.966 196.916L861.966 198.408L860.473 198.408L860.473 196.916z"/>
<path class="l5" d="M905.254 152.135L906.746 152.135L906.746 153.628L905.254 153.628L905.254 152.135z"/>
<path class="l5" d="M66.3616 776.079L73.825 776.079L73.825 783.543L66.3616 783.543L66.3616 776.079z"/>
<path class="l5" d="M126.069 776.079L133.533 776.079L133.533 783.543L126.069 783.543L126.069 776.079z"/>
<path class="l5" d="M96.2154 686.518L103.679 686.518L103.679 693.981L96.2154 693.981L96.2154 686.518z"/>
<path class="l5" d="M155.923 731.299L163.386 731.299L163.386 738.762L155.923 738.762L155.923 731.299z"/>
<path class="l5" d="M320.119 776.079L327.582 776.079L327.582 783.543L320.119 783.543L320.119 776.079z"/>
<path class="l5" d="M379.827 776.079L387.29 776.079L387.29 783.543L379.827 783.543L379.827 776.079z"/>
<path class="l5" d="M349.973 686.518L357.436 686.518L357.436 693.981L349.973 693.981L349.973 686.518z"/>
<path class="l5" d="M409.68 731.299L417.144 731.299L417.144 738.762L409.68 738.762L409.68 731.299z"/>
<path class="l5" d="M573.876 776.079L581.34 776.079L581.34 783.543L573.876 783.543L573.876 776.079z"/>
<path class="l5" d="M633.584 776.079L641.047 776.079L641.047 783.543L633.584 783.543L633.584 776.079z"/>
<path class="l5" d="M603.73 686.518L611.194 686.518L611.194 693.981L603.73 693.981L603.73 686.518z"/>
<path class="l5" d="M663.438 731.299L670.901 731.299L670.901 738.762L663.438 738.762L663.438 731.299z"/>
<path class="l5" d="M827.634 776.079L835.097 776.079L835.097 783.543L827.634 783.543L827.634 776.079z"/>
<path class="l5" d="M887.341 776.079L894.805 776.079L894.805 783.543L887.341 783.543L887.341 776.079z"/>
<path class="l5" d="M857.488 686.518L864.951 686.518L864.951 693.981L857.488 693.981L857.488 686.518z"/>
<path class="l5" d="M917.195 731.299L924.659 731.299L924.659 738.762L917.195 738.762L917.195 731.299z"/>
<path class="l5" d="M1081.39 776.079L1088.85 776.079L1088.85 783.543L1081.39 783.543L1081.39 776.079z"/>
<path class="l5" d="M1141.1 776.079L1148.56 776.079L1148.56 783.543L1141.1 783.543L1141.1 776.079z"/>
<path class="l5" d="M1111.24 686.518L1118.71 686.518L1118.71 693.981L1111.24 693.981L1111.24 686.518z"/>
<path class="l5" d="M1170.95 731.299L1178.42 731.299L1178.42 738.762L1170.95 738.762L1170.95 731.299z"/>
<path class="l5" d="M1335.15 776.079L1342.61 776.079L1342.61 783.543L1335.15 783.543L1335.15 776.079z"/>
<path class="l5" d="M1394.86 776.079L1402.32 776.079L1402.32 783.543L1394.86 783.543L1394.86 776.079z"/>
<path class="l5" d="M1365 686.518L1372.47 686.518L1372.47 693.981L1365 693.981L1365 686.518z"/>
<path class="l5" d="M1424.71 731.299L1432.17 731.299L1432.17 738.762L1424.71 738.762L1424.71 731.299z"/>
<path class="l5" d="M1588.91 776.079L1596.37 776.079L1596.37 783.543L1588.91 783.543L1588.91 776.079z"/>
<path class="l5" d="M1648.61 776.079L1656.08 776.079L1656.08 783.543L1648.61 783.543L1648.61 776.079z"/>
<path class="l5" d="M1618.76 686.518L1626.22 686.518L1626.22 693.981L1618.76 693.981L1618.76 686.518z"/>
<path class="l5" d="M1678.47 731.299L1685.93 731.299L1685.93 738.762L1678.47 738.762L1678.47 731.299z"/>
<path class="l5" d="M905.254 152.135L906.746 152.135L906.746 153.628L905.254 153.628L905.254 152.135z"/>
<path class="l5" d="M1665.41 255.504L1669.14 255.504L1669.14 259.235L1665.41 259.235L1665.41 255.504z"/>
<path class="l1" d="M144.728 361.858L249.216 361.858"/>
<path class="l1" d="M99.9471 317.077L293.997 317.077"/>
<path class="l1" d="M293.997 317.077L353.705 317.077"/>
<path class="l1" d="M338.778 361.858L398.485 361.858"/>
<path class="l1" d="M398.485 361.858L502.974 361.858"/>
<path class="l1" d="M353.705 317.077L547.754 317.077"/>
<path class="l1" d="M547.754 317.077L607.462 317.077"/>
<path class="l1" d="M592.535 361.858L652.243 361.858"/>
<path class="l1" d="M652.243 361.858L756.731 361.858"/>
<path class="l1" d="M607.462 317.077L801.512 317.077"/>
<path class="l1" d="M801.512 317.077L861.219 317.077"/>
<path class="l1" d="M846.292 361.858L906 361.858"/>
<path class="l1" d="M906 361.858L1010.49 361.858"/>
<path class="l1" d="M861.219 317.077L1055.27 317.077"/>
<path class="l1" d="M1055.27 317.077L1114.98 317.077"/>
<path class="l1" d="M1100.05 361.858L1159.76 361.858"/>
<path class="l1" d="M1159.76 361.858L1264.25 361.858"/>
<path class="l1" d="M1114.98 317.077L1309.03 317.077"/>
<path class="l1" d="M1309.03 317.077L1368.73 317.077"/>
<path class="l1" d="M1353.81 361.858L1413.51 361.858"/>
<path class="l1" d="M1413.51 361.858L1518 361.858"/>
<path class="l1" d="M1368.73 317.077L1562.78 317.077"/>
<path class="l1" d="M1562.78 317.077L1622.49 317.077"/>
<path class="l1" d="M1607.56 361.858L1667.27 361.858"/>
<path class="l1" d="M144.728 361.858L144.728 451.419"/>
<path class="l1" d="M398.485 361.858L398.485 451.419"/>
<path class="l1" d="M652.243 361.858L652.243 451.419"/>
<path class="l1" d="M906 361.858L906 451.419"/>
<path class="l1" d="M1159.76 361.858L1159.76 451.419"/>
<path class="l1" d="M1413.51 361.858L1413.51 451.419"/>
<path class="l1" d="M1667.27 361.858L1667.27 451.419"/>
<path class="l1" d="M144.728 540.981L398.485 540.981"/>
<path class="l1" d="M398.485 540.981L652.243 540.981"/>
<path class="l1" d="M652.243 540.981L906 540.981"/>
<path class="l1" d="M906 540.981L1159.76 540.981"/>
<path class="l1" d="M1159.76 540.981L1413.51 540.981"/>
<path class="l1" d="M1413.51 540.981L1667.27 540.981"/>
<path class="l1" d="M906 540.981L906 570.835"/>
<path class="l1" d="M144.728 272.296L398.485 272.296"/>
<path class="l1" d="M398.485 272.296L652.243 272.296"/>
<path class="l1" d="M652.243 272.296L906 272.296"/>
<path class="l1" d="M906 272.296L1159.76 272.296"/>
<path class="l1" d="M1159.76 272.296L1413.51 272.296"/>
<path class="l1" d="M906 242.443L906 272.296"/>
<path class="l1" d="M99.9471 496.2L99.9471 690.25"/>
<path class="l1" d="M353.705 496.2L353.705 690.25"/>
<path class="l1" d="M607.462 496.2L607.462 690.25"/>
<path class="l1" d="M861.219 496.2L861.219 690.25"/>
<path class="l1" d="M1114.98 496.2L1114.98 690.25"/>
<path class="l1" d="M1368.73 496.2L1368.73 690.25"/>
<path class="l1" d="M1622.49 496.2L1622.49 690.25"/>
<path class="l1" d="M1667.27 257.37L1667.27 272.296"/>
<path class="l1" d="M861.219 197.662L861.219 272.296"/>
<circle class="l1" cx="861.219" cy="272.296" r="5.97076"/>
<circle class="l1" cx="906" cy="272.296" r="5.97076"/>
<circle class="l1" cx="906" cy="272.296" r="5.97076"/>
<circle class="l1" cx="906" cy="272.296" r="5.97076"/>
<circle class="l1" cx="906" cy="361.858" r="5.97076"/>
<circle class="l1" cx="652.243" cy="361.858" r="5.97076"/>
<circle class="l1" cx="398.485" cy="361.858" r="5.97076"/>
<circle class="l1" cx="906" cy="361.858" r="5.97076"/>
<circle class="l1" cx="906" cy="361.858" r="5.97076"/>
<circle class="l1" cx="652.243" cy="361.858" r="5.97076"/>
<circle class="l1" cx="652.243" cy="361.858" r="5.97076"/>
<circle class="l1" cx="398.485" cy="361.858" r="5.97076"/>
<circle class="l1" cx="398.485" cy="361.858" r="5.97076"/>
<circle class="l1" cx="906" cy="540.981" r="5.97076"/>
<circle class="l1" cx="906" cy="540.981" r="5.97076"/>
<circle class="l1" cx="906" cy="540.981" r="5.97076"/>
<circle class="l1" cx="1413.51" cy="361.858" r="5.97076"/>
<circle class="l1" cx="1159.76" cy="361.858" r="5.97076"/>
<circle class="l1" cx="1413.51" cy="361.858" r="5.97076"/>
<circle class="l1" cx="1413.51" cy="361.858" r="5.97076"/>
<circle class="l1" cx="1159.76" cy="361.858" r="5.97076"/>
<circle class="l1" cx="1159.76" cy="361.858" r="5.97076"/>
</svg>
